<!DOCTYPE svg PUBLIC "-//W3C//DTD SVG 1.1//EN" "http://www.w3.org/Graphics/SVG/1.1/DTD/svg11.dtd">
<!-- Uploaded to: SVG Repo, www.svgrepo.com, Transformed by: SVG Repo Mixer Tools -->
<svg fill="#ababab" version="1.1" id="Capa_1" xmlns="http://www.w3.org/2000/svg" xmlns:xlink="http://www.w3.org/1999/xlink" width="215px" height="215px" viewBox="0 0 35.88 35.88" xml:space="preserve" transform="matrix(1, 0, 0, 1, 0, 0)rotate(0)" stroke="#ababab" stroke-width="0.00035883000000000003">
<g id="SVGRepo_bgCarrier" stroke-width="0"/>
<g id="SVGRepo_tracerCarrier" stroke-linecap="round" stroke-linejoin="round"/>
<g id="SVGRepo_iconCarrier"> <g> <path d="M35.668,16.129l-6.722,15.106c-0.401,0.9-1.297,1.482-2.284,1.482H9.219c-0.986,0-1.883-0.582-2.283-1.482L0.215,16.13 c-0.344-0.773-0.273-1.668,0.188-2.378s1.25-1.138,2.097-1.138h3.94l3.736-8.005c0.586-1.25,2.072-1.792,3.324-1.208 c1.25,0.584,1.791,2.071,1.207,3.323l-2.748,5.89h11.963l-2.748-5.89c-0.584-1.251-0.043-2.739,1.209-3.323 c1.25-0.584,2.738-0.043,3.322,1.208l3.733,8.004h3.94c0.849,0,1.638,0.428,2.099,1.138S36.011,15.356,35.668,16.129z"/> </g> </g>
</svg>