<svg id="Layer_1" enable-background="new 0 0 512 512" viewBox="0 0 512 512" xmlns="http://www.w3.org/2000/svg" height="100px" width="100px" transform="rotate(0) scale(1, 1)"><g clip-rule="evenodd" fill-rule="evenodd"><ellipse cx="256" cy="256" fill="#ff4545" rx="255.999" ry="255.999" transform="matrix(.707 -.707 .707 .707 -106.039 256)"/><path d="m258.077 511.973c126.598-1.013 231.591-94.376 250.778-215.9l-167.359-167.36c-5.48-5.62-13.129-9.115-21.581-9.115h-127.829c-16.629 0-30.157 13.528-30.157 30.157v46.418h-30.253c-8.876 0-16.967 3.693-22.781 10.397-5.818 6.706-8.33 15.239-7.074 24.026l19.417 135.914c.984 6.891 4.167 12.913 8.788 17.411z" fill="#f25e5e"/><path d="m323.199 268.141v52.294c0 6.627-5.372 12-12 12s-12-5.373-12-12v-52.294c0-6.628 5.372-12 12-12s12 5.372 12 12zm-55.199-14.527v81.347c0 6.628-5.373 12-12 12s-12-5.372-12-12v-81.347c0-6.627 5.373-12 12-12s12 5.373 12 12zm-55.198 14.527v52.294c0 6.627-5.372 12-12 12s-12-5.373-12-12v-52.294c0-6.628 5.372-12 12-12s12 5.372 12 12zm173.618-40.94c.279-1.95-.152-3.417-1.442-4.904-1.292-1.489-2.683-2.124-4.654-2.124h-248.648c-1.97 0-3.361.635-4.652 2.123s-1.722 2.955-1.444 4.904l19.417 135.915c.444 3.113 2.951 5.287 6.096 5.287h209.815c3.145 0 5.651-2.173 6.095-5.286zm-200.491-77.446c0-3.396 2.761-6.157 6.157-6.157h127.829c3.396 0 6.157 2.761 6.157 6.157v46.418h-140.143zm194.395 46.418h-30.252v-46.418c0-16.629-13.528-30.157-30.157-30.157h-127.829c-16.629 0-30.157 13.528-30.157 30.157v46.418h-30.253c-8.876 0-16.967 3.693-22.781 10.397-5.818 6.706-8.33 15.239-7.074 24.026l19.417 135.914c2.144 15.003 14.7 25.892 29.855 25.892h209.815c15.156 0 27.712-10.889 29.855-25.892l19.417-135.915c1.254-8.788-1.258-17.321-7.073-24.024-5.815-6.705-13.906-10.398-22.783-10.398z" fill="#ffffff"/></g></svg>